<mxfile host="app.diagrams.net" agent="Mozilla/5.0 (Windows NT 10.0; Win64; x64) AppleWebKit/537.36 (KHTML, like Gecko) Chrome/139.0.0.0 Safari/537.36 Edg/139.0.0.0" version="28.1.1">
  <diagram name="Page-1" id="U1SIJXhBMUQygSNPGZpA">
    <mxGraphModel dx="1034" dy="666" grid="1" gridSize="10" guides="1" tooltips="1" connect="1" arrows="1" fold="1" page="1" pageScale="1" pageWidth="850" pageHeight="1100" math="0" shadow="0">
      <root>
        <mxCell id="0" />
        <mxCell id="1" parent="0" />
        <mxCell id="ibtqogVVtsrPmblWi1qW-1" value="Answers on device" style="whiteSpace=wrap;strokeWidth=2;" vertex="1" parent="1">
          <mxGeometry x="364" y="40" width="192" height="54" as="geometry" />
        </mxCell>
        <mxCell id="ibtqogVVtsrPmblWi1qW-2" value="POST /quiz" style="whiteSpace=wrap;strokeWidth=2;" vertex="1" parent="1">
          <mxGeometry x="80" y="166" width="139" height="54" as="geometry" />
        </mxCell>
        <mxCell id="ibtqogVVtsrPmblWi1qW-3" value="DB: QUIZ_SESSIONS, QUIZ_ANSWERS" style="whiteSpace=wrap;strokeWidth=2;" vertex="1" parent="1">
          <mxGeometry x="20" y="270" width="260" height="78" as="geometry" />
        </mxCell>
        <mxCell id="ibtqogVVtsrPmblWi1qW-4" value="POST /lead" style="whiteSpace=wrap;strokeWidth=2;" vertex="1" parent="1">
          <mxGeometry x="390" y="166" width="140" height="54" as="geometry" />
        </mxCell>
        <mxCell id="ibtqogVVtsrPmblWi1qW-5" value="DB: LEADS (consent)" style="whiteSpace=wrap;strokeWidth=2;" vertex="1" parent="1">
          <mxGeometry x="357" y="282" width="205" height="54" as="geometry" />
        </mxCell>
        <mxCell id="ibtqogVVtsrPmblWi1qW-6" value="Nightly Export&#xa;(JSON/CSV)" style="whiteSpace=wrap;strokeWidth=2;" vertex="1" parent="1">
          <mxGeometry x="20" y="433" width="260" height="54" as="geometry" />
        </mxCell>
        <mxCell id="ibtqogVVtsrPmblWi1qW-7" value="ML Staging (bucket)" style="whiteSpace=wrap;strokeWidth=2;" vertex="1" parent="1">
          <mxGeometry x="50" y="549" width="201" height="54" as="geometry" />
        </mxCell>
        <mxCell id="ibtqogVVtsrPmblWi1qW-8" value="GDPR Delete&#xa;(purge LEADS &amp; joins)" style="whiteSpace=wrap;strokeWidth=2;" vertex="1" parent="1">
          <mxGeometry x="330" y="421" width="260" height="78" as="geometry" />
        </mxCell>
        <mxCell id="ibtqogVVtsrPmblWi1qW-9" value="PostHog events (no PII)" style="whiteSpace=wrap;strokeWidth=2;" vertex="1" parent="1">
          <mxGeometry x="580" y="166" width="225" height="54" as="geometry" />
        </mxCell>
        <mxCell id="ibtqogVVtsrPmblWi1qW-10" value="" style="curved=1;startArrow=none;endArrow=block;exitX=0;exitY=0.86;entryX=0.5;entryY=0.01;rounded=0;" edge="1" parent="1" source="ibtqogVVtsrPmblWi1qW-1" target="ibtqogVVtsrPmblWi1qW-2">
          <mxGeometry relative="1" as="geometry">
            <Array as="points">
              <mxPoint x="150" y="130" />
            </Array>
          </mxGeometry>
        </mxCell>
        <mxCell id="ibtqogVVtsrPmblWi1qW-11" value="" style="curved=1;startArrow=none;endArrow=block;exitX=0.5;exitY=1.01;entryX=0.5;entryY=0.01;rounded=0;" edge="1" parent="1" source="ibtqogVVtsrPmblWi1qW-2" target="ibtqogVVtsrPmblWi1qW-3">
          <mxGeometry relative="1" as="geometry">
            <Array as="points" />
          </mxGeometry>
        </mxCell>
        <mxCell id="ibtqogVVtsrPmblWi1qW-12" value="email (optional)" style="curved=1;dashed=1;dashPattern=2 3;startArrow=none;endArrow=block;exitX=0.5;exitY=1;entryX=0.5;entryY=0.01;rounded=0;" edge="1" parent="1" source="ibtqogVVtsrPmblWi1qW-1" target="ibtqogVVtsrPmblWi1qW-4">
          <mxGeometry relative="1" as="geometry">
            <Array as="points" />
          </mxGeometry>
        </mxCell>
        <mxCell id="ibtqogVVtsrPmblWi1qW-13" value="" style="curved=1;startArrow=none;endArrow=block;exitX=0.5;exitY=1.01;entryX=0.5;entryY=0.01;rounded=0;" edge="1" parent="1" source="ibtqogVVtsrPmblWi1qW-4" target="ibtqogVVtsrPmblWi1qW-5">
          <mxGeometry relative="1" as="geometry">
            <Array as="points" />
          </mxGeometry>
        </mxCell>
        <mxCell id="ibtqogVVtsrPmblWi1qW-14" value="" style="curved=1;startArrow=none;endArrow=block;exitX=0.5;exitY=1.01;entryX=0.5;entryY=0;rounded=0;" edge="1" parent="1" source="ibtqogVVtsrPmblWi1qW-3" target="ibtqogVVtsrPmblWi1qW-6">
          <mxGeometry relative="1" as="geometry">
            <Array as="points" />
          </mxGeometry>
        </mxCell>
        <mxCell id="ibtqogVVtsrPmblWi1qW-15" value="" style="curved=1;startArrow=none;endArrow=block;exitX=0.5;exitY=1;entryX=0.5;entryY=0;rounded=0;" edge="1" parent="1" source="ibtqogVVtsrPmblWi1qW-6" target="ibtqogVVtsrPmblWi1qW-7">
          <mxGeometry relative="1" as="geometry">
            <Array as="points" />
          </mxGeometry>
        </mxCell>
        <mxCell id="ibtqogVVtsrPmblWi1qW-16" value="Delete request" style="curved=1;dashed=1;dashPattern=2 3;startArrow=none;endArrow=block;exitX=0.5;exitY=1.01;entryX=0.5;entryY=0;rounded=0;" edge="1" parent="1" source="ibtqogVVtsrPmblWi1qW-5" target="ibtqogVVtsrPmblWi1qW-8">
          <mxGeometry relative="1" as="geometry">
            <Array as="points" />
          </mxGeometry>
        </mxCell>
        <mxCell id="ibtqogVVtsrPmblWi1qW-17" value="Minimal analytics" style="curved=1;dashed=1;dashPattern=2 3;startArrow=none;endArrow=block;exitX=1;exitY=0.98;entryX=0.5;entryY=0.01;rounded=0;" edge="1" parent="1" source="ibtqogVVtsrPmblWi1qW-1" target="ibtqogVVtsrPmblWi1qW-9">
          <mxGeometry relative="1" as="geometry">
            <Array as="points">
              <mxPoint x="692" y="130" />
            </Array>
          </mxGeometry>
        </mxCell>
      </root>
    </mxGraphModel>
  </diagram>
</mxfile>
